<svg xmlns="http://www.w3.org/2000/svg" viewBox="0 0 54 54"><defs><style>.cls-1{fill:#3e74ee;}.cls-2{fill:#7facfa;}.cls-3{fill:#a4c2f7;}.cls-4{fill:#cad9fc;}.cls-5{fill:#e8edfc;}.cls-6{fill:#fff;}</style></defs><g id="Layer_2" data-name="Layer 2"><g id="Layer_1-2" data-name="Layer 1"><rect class="cls-1" width="54" height="54" rx="10"/><path class="cls-2" d="M26,32.5a1.5,1.5,0,1,1-.44-1.06A1.5,1.5,0,0,1,26,32.5Z"/><path class="cls-3" d="M31,39.5a2,2,0,0,1-2,2,1.93,1.93,0,0,1-.75-.15,2,2,0,0,1,0-3.7A1.93,1.93,0,0,1,29,37.5a2,2,0,0,1,2,2Z"/><path class="cls-4" d="M20,30a2,2,0,0,1-2,2,1.93,1.93,0,0,1-.75-.15,2,2,0,0,1,0-3.7A1.93,1.93,0,0,1,18,28a2,2,0,0,1,2,2Z"/><path class="cls-4" d="M15.5,24.5a1.5,1.5,0,1,1-.44-1.06A1.5,1.5,0,0,1,15.5,24.5Z"/><path class="cls-4" d="M19.5,18a2,2,0,0,1-2,2,1.93,1.93,0,0,1-.75-.15,2,2,0,0,1,0-3.7A1.93,1.93,0,0,1,17.5,16a2,2,0,0,1,2,2Z"/><path class="cls-2" d="M25,15a1.5,1.5,0,1,1-2.89-.57A1.5,1.5,0,0,1,25,15Z"/><path class="cls-4" d="M32,14.5a2,2,0,0,1-2,2,1.93,1.93,0,0,1-.75-.15,2,2,0,0,1,0-3.7A1.93,1.93,0,0,1,30,12.5a2,2,0,0,1,2,2Z"/><path class="cls-2" d="M39,16a1.5,1.5,0,1,1-.44-1.06A1.5,1.5,0,0,1,39,16Z"/><path class="cls-4" d="M41.5,22.5a2,2,0,0,1-2,2,1.93,1.93,0,0,1-.75-.15,2,2,0,0,1,0-3.7,1.93,1.93,0,0,1,.75-.15,2,2,0,0,1,2,2Z"/><path class="cls-2" d="M39.5,28.5a1.5,1.5,0,1,1-.44-1.06A1.5,1.5,0,0,1,39.5,28.5Z"/><path class="cls-2" d="M37,35.5a1.5,1.5,0,1,1-.44-1.06A1.49,1.49,0,0,1,37,35.5Z"/><path class="cls-3" d="M33.5,31a2,2,0,0,1-2,2,1.93,1.93,0,0,1-.75-.15,2,2,0,0,1,0-3.7A1.93,1.93,0,0,1,31.5,29a2,2,0,0,1,2,2Z"/><path class="cls-4" d="M29.5,39.5c0-1-.56-1.85-1.25-1.85S27,38.48,27,39.5s.56,1.85,1.25,1.85S29.5,40.52,29.5,39.5Z"/><path class="cls-5" d="M18.5,30c0-1-.56-1.85-1.25-1.85S16,29,16,30s.56,1.85,1.25,1.85S18.5,31,18.5,30Z"/><path class="cls-5" d="M18,18c0-1-.56-1.85-1.25-1.85S15.5,17,15.5,18s.56,1.85,1.25,1.85S18,19,18,18Z"/><path class="cls-5" d="M30.5,14.5c0-1-.56-1.85-1.25-1.85S28,13.48,28,14.5s.56,1.85,1.25,1.85S30.5,15.52,30.5,14.5Z"/><path class="cls-5" d="M40,22.5c0-1-.56-1.85-1.25-1.85s-1.25.83-1.25,1.85.56,1.85,1.25,1.85S40,23.52,40,22.5Z"/><path class="cls-4" d="M32,31c0-1-.56-1.85-1.25-1.85S29.5,30,29.5,31s.56,1.85,1.25,1.85S32,32,32,31Z"/><path class="cls-2" d="M23,24a1.5,1.5,0,1,1-.44-1.06A1.5,1.5,0,0,1,23,24Z"/><path class="cls-3" d="M29,20.5a2,2,0,0,1-2,2,1.93,1.93,0,0,1-.75-.15,2,2,0,0,1,0-3.7A1.93,1.93,0,0,1,27,18.5a2,2,0,0,1,2,2Z"/><path class="cls-5" d="M14,24.5a1.51,1.51,0,0,1-.75,1.3,1.5,1.5,0,0,1,0-2.6A1.51,1.51,0,0,1,14,24.5Z"/><path class="cls-3" d="M35.5,35.5a1.51,1.51,0,0,1-.75,1.3,1.5,1.5,0,0,1,0-2.6A1.51,1.51,0,0,1,35.5,35.5Z"/><path class="cls-4" d="M27.5,20.5c0-1-.56-1.85-1.25-1.85S25,19.48,25,20.5s.56,1.85,1.25,1.85S27.5,21.52,27.5,20.5Z"/><path class="cls-2" d="M34.5,24a1.5,1.5,0,1,1-.44-1.06A1.5,1.5,0,0,1,34.5,24Z"/><path class="cls-3" d="M24.5,32.5a1.51,1.51,0,0,1-.75,1.3,1.5,1.5,0,0,1,0-2.6A1.51,1.51,0,0,1,24.5,32.5Z"/><path class="cls-3" d="M23.5,15a1.51,1.51,0,0,1-.75,1.3,1.5,1.5,0,0,1,0-2.6A1.51,1.51,0,0,1,23.5,15Z"/><path class="cls-3" d="M37.5,16a1.51,1.51,0,0,1-.75,1.3,1.5,1.5,0,0,1,0-2.6A1.51,1.51,0,0,1,37.5,16Z"/><path class="cls-3" d="M38,28.5a1.51,1.51,0,0,1-.75,1.3,1.5,1.5,0,0,1,0-2.6A1.51,1.51,0,0,1,38,28.5Z"/><path class="cls-3" d="M21.5,24a1.51,1.51,0,0,1-.75,1.3,1.5,1.5,0,0,1,0-2.6A1.51,1.51,0,0,1,21.5,24Z"/><path class="cls-3" d="M33,24a1.51,1.51,0,0,1-.75,1.3,1.5,1.5,0,0,1,0-2.6A1.51,1.51,0,0,1,33,24Z"/><path class="cls-6" d="M13.25,25.8A1.53,1.53,0,0,0,14,26a1.47,1.47,0,0,0,.74-.2,1.51,1.51,0,0,1,0-2.6A1.47,1.47,0,0,0,14,23a1.5,1.5,0,0,0-.75,2.8Z"/><path class="cls-6" d="M17.25,31.85a1.95,1.95,0,0,0,1.5,0h0a2,2,0,0,1,0-3.7h0a2,2,0,0,0-1.5,0,2,2,0,0,0,0,3.7Z"/><path class="cls-6" d="M16.75,16.15a2,2,0,0,0,0,3.7,2,2,0,0,0,1.5,0h0a2,2,0,0,1,0-3.7h0a2,2,0,0,0-1.5,0Z"/><path class="cls-6" d="M24.5,34.5a2,2,0,1,1,2-2A2,2,0,0,1,24.5,34.5Zm0-3a1,1,0,1,0,1,1A1,1,0,0,0,24.5,31.5Z"/><path class="cls-6" d="M29,42a2.5,2.5,0,1,1,2.5-2.5A2.5,2.5,0,0,1,29,42Zm0-4a1.5,1.5,0,1,0,1.5,1.5A1.5,1.5,0,0,0,29,38Z"/><path class="cls-6" d="M18,32.5A2.5,2.5,0,1,1,20.5,30,2.5,2.5,0,0,1,18,32.5Zm0-4A1.5,1.5,0,1,0,19.5,30,1.5,1.5,0,0,0,18,28.5Z"/><path class="cls-6" d="M14,26.5a2,2,0,1,1,2-2A2,2,0,0,1,14,26.5Zm0-3a1,1,0,1,0,1,1A1,1,0,0,0,14,23.5Z"/><path class="cls-6" d="M17.5,20.5A2.5,2.5,0,1,1,20,18,2.5,2.5,0,0,1,17.5,20.5Zm0-4A1.5,1.5,0,1,0,19,18,1.5,1.5,0,0,0,17.5,16.5Z"/><path class="cls-6" d="M23.5,17a2,2,0,1,1,2-2A2,2,0,0,1,23.5,17Zm0-3a1,1,0,1,0,1,1A1,1,0,0,0,23.5,14Z"/><path class="cls-6" d="M30,12a2.5,2.5,0,1,1-2.5,2.5A2.5,2.5,0,0,1,30,12"/><path class="cls-4" d="M30,13a1.5,1.5,0,1,0,1.5,1.5A1.5,1.5,0,0,0,30,13Z"/><path class="cls-6" d="M37.5,18a2,2,0,1,1,2-2A2,2,0,0,1,37.5,18Zm0-3a1,1,0,1,0,1,1A1,1,0,0,0,37.5,15Z"/><path class="cls-6" d="M39.5,25A2.5,2.5,0,1,1,42,22.5,2.5,2.5,0,0,1,39.5,25Zm0-4A1.5,1.5,0,1,0,41,22.5,1.5,1.5,0,0,0,39.5,21Z"/><path class="cls-6" d="M38,30.5a2,2,0,1,1,2-2A2,2,0,0,1,38,30.5Zm0-3a1,1,0,1,0,1,1A1,1,0,0,0,38,27.5Z"/><path class="cls-6" d="M35.5,37.5a2,2,0,1,1,2-2A2,2,0,0,1,35.5,37.5Zm0-3a1,1,0,1,0,1,1A1,1,0,0,0,35.5,34.5Z"/><path class="cls-6" d="M31.5,33.5A2.5,2.5,0,1,1,34,31,2.51,2.51,0,0,1,31.5,33.5Zm0-4A1.5,1.5,0,1,0,33,31,1.5,1.5,0,0,0,31.5,29.5Z"/><path class="cls-6" d="M21.5,26a2,2,0,1,1,2-2A2,2,0,0,1,21.5,26Zm0-3a1,1,0,1,0,1,1A1,1,0,0,0,21.5,23Z"/><path class="cls-6" d="M27,23a2.5,2.5,0,1,1,2.5-2.5A2.5,2.5,0,0,1,27,23Zm0-4a1.5,1.5,0,1,0,1.5,1.5A1.5,1.5,0,0,0,27,19Z"/><path class="cls-6" d="M33,26a2,2,0,1,1,2-2A2,2,0,0,1,33,26Zm0-3a1,1,0,1,0,1,1A1,1,0,0,0,33,23Z"/><path class="cls-6" d="M30.7,39a.48.48,0,0,1-.48-.36.5.5,0,0,1,.22-.56L34,35.86a.5.5,0,0,1,.53.85L31,38.88A.48.48,0,0,1,30.7,39Z"/><path class="cls-6" d="M38.37,27.54h-.13a.46.46,0,0,1-.3-.23.5.5,0,0,1-.06-.38l.65-2.6a.49.49,0,0,1,.35-.37.52.52,0,0,1,.49.12.5.5,0,0,1,.13.49l-.65,2.61A.5.5,0,0,1,38.37,27.54Z"/><path class="cls-6" d="M36,16.21l-.1,0L35,16a.5.5,0,0,1,.2-1l1,.19a.52.52,0,0,1,.4.54.5.5,0,0,1-.5.45Zm-2.94-.59H33l-1-.2a.5.5,0,1,1,.2-1l1,.2a.48.48,0,0,1,.39.53.5.5,0,0,1-.49.46Z"/><path class="cls-6" d="M19.29,17.61a.49.49,0,0,1-.49-.39.48.48,0,0,1,.26-.56l2.88-1.44a.49.49,0,0,1,.66.23.5.5,0,0,1-.22.67l-2.87,1.43A.6.6,0,0,1,19.29,17.61Z"/><path class="cls-6" d="M16.83,28.89a.51.51,0,0,1-.41-.21L14.48,26a.49.49,0,1,1,.8-.58l2,2.67a.49.49,0,0,1,0,.52A.52.52,0,0,1,16.83,28.89Z"/><path class="cls-6" d="M23.1,32.47a.58.58,0,0,1-.18,0l-3.24-1.25a.49.49,0,0,1-.27-.64.5.5,0,0,1,.64-.29l3.22,1.24a.51.51,0,0,1,.33.56A.52.52,0,0,1,23.1,32.47Z"/><path class="cls-6" d="M14.71,23.68a.5.5,0,0,1-.43-.24.52.52,0,0,1,0-.5l.42-.77a.5.5,0,0,1,.68-.21.51.51,0,0,1,.2.68l-.42.78A.51.51,0,0,1,14.71,23.68Zm1.37-2.54a.5.5,0,0,1-.44-.74l.47-.88A.5.5,0,0,1,17,20l-.47.88a.51.51,0,0,1-.44.26Z"/><path class="cls-6" d="M25,15.38a.5.5,0,0,1,0-1l3-.23,0,.5v.49l-3,.23Z"/><path class="cls-6" d="M38.91,21.09a.5.5,0,0,1-.48-.35l-1-3.16a.5.5,0,1,1,1-.3l1,3.16a.52.52,0,0,1-.08.45A.51.51,0,0,1,38.91,21.09Z"/><path class="cls-6" d="M36.15,34.18a.51.51,0,0,1-.17,0,.5.5,0,0,1-.3-.64l.34-.94a.51.51,0,0,1,.38-.33.53.53,0,0,1,.47.17.52.52,0,0,1,.09.49l-.34,1A.51.51,0,0,1,36.15,34.18Zm1-2.83a.51.51,0,0,1-.41-.21.5.5,0,0,1-.06-.46l.33-.94a.5.5,0,0,1,.95.34l-.34.94A.5.5,0,0,1,37.16,31.35Z"/><path class="cls-6" d="M27.92,38.32a.5.5,0,0,1-.42-.23L24.89,34a.5.5,0,1,1,.84-.54l2.61,4.06a.51.51,0,0,1,.07.38.51.51,0,0,1-.49.39Z"/><path class="cls-6" d="M24.81,31.53a.5.5,0,0,1-.39-.18.49.49,0,0,1-.1-.42l.2-1a.51.51,0,0,1,.59-.39.5.5,0,0,1,.39.59l-.21,1A.49.49,0,0,1,24.81,31.53Zm.61-2.94h-.1a.47.47,0,0,1-.32-.21.51.51,0,0,1-.07-.38l.2-1a.52.52,0,0,1,.6-.39.5.5,0,0,1,.38.6l-.2,1a.49.49,0,0,1-.49.39ZM26,25.66h-.1a.5.5,0,0,1-.39-.59l.2-1a.51.51,0,0,1,.83-.28.5.5,0,0,1,.15.48l-.2,1a.5.5,0,0,1-.49.4Z"/><path class="cls-6" d="M20.67,23.25a.5.5,0,0,1-.42-.22l-.56-.83a.5.5,0,0,1,.15-.69.49.49,0,0,1,.69.13l.55.83a.54.54,0,0,1,0,.52A.51.51,0,0,1,20.67,23.25ZM19,20.75a.49.49,0,0,1-.41-.22l-.4-.59a.5.5,0,0,1,.14-.69.51.51,0,0,1,.7.14l.39.59a.49.49,0,0,1,0,.51A.49.49,0,0,1,19,20.75Z"/><path class="cls-6" d="M26,32.68a.5.5,0,0,1-.49-.44.49.49,0,0,1,.39-.54l3.58-.77a.53.53,0,0,1,.49.15.5.5,0,0,1,.1.5.48.48,0,0,1-.38.33l-3.58.76A.2.2,0,0,1,26,32.68Z"/><path class="cls-6" d="M31.92,29.54a.17.17,0,0,1-.1,0,.49.49,0,0,1-.39-.59l.77-3.58a.5.5,0,0,1,1,.21l-.76,3.58A.49.49,0,0,1,31.92,29.54Z"/><path class="cls-6" d="M31.7,23.75a.59.59,0,0,1-.25-.07l-.86-.51a.5.5,0,0,1,.5-.86l.87.5a.51.51,0,0,1-.26.94Zm-2.59-1.52a.47.47,0,0,1-.25-.07l-.39-.22a.51.51,0,0,1,0-.88.54.54,0,0,1,.51,0l.39.23a.5.5,0,0,1-.26.93Z"/><path class="cls-6" d="M22.77,23.69a.47.47,0,0,1-.48-.36.49.49,0,0,1,.21-.56l2.55-1.62a.5.5,0,0,1,.5,0,.51.51,0,0,1,.28.43.53.53,0,0,1-.25.45L23,23.62A.41.41,0,0,1,22.77,23.69Z"/><path class="cls-6" d="M15.49,24.9a.5.5,0,0,1-.5-.48.51.51,0,0,1,.47-.52L20,23.6a.5.5,0,0,1,.07,1l-4.51.3Z"/><path class="cls-6" d="M18.83,28.69a.48.48,0,0,1-.43-.26.52.52,0,0,1,0-.51l.25-.39a.5.5,0,0,1,.45-.24.5.5,0,0,1,.43.27.5.5,0,0,1,0,.5l-.25.4A.51.51,0,0,1,18.83,28.69Zm1.33-2.08a.51.51,0,0,1-.44-.26.49.49,0,0,1,0-.51l.53-.84a.51.51,0,0,1,.45-.23.49.49,0,0,1,.42.26.52.52,0,0,1,0,.5l-.54.85A.5.5,0,0,1,20.16,26.61Z"/><path class="cls-6" d="M25.93,19.32a.5.5,0,0,1-.43-.24L25,18.24a.5.5,0,0,1,.84-.54l.54.85a.52.52,0,0,1,0,.51A.5.5,0,0,1,25.93,19.32ZM24.3,16.78a.5.5,0,0,1-.41-.23v0a.47.47,0,0,1,0-.5.51.51,0,0,1,.89.48.5.5,0,0,1-.45.27Z"/><path class="cls-6" d="M27.89,19.22a.49.49,0,0,1-.42-.24.5.5,0,0,1,0-.49l1.21-2.43a.5.5,0,0,1,.87-.06.49.49,0,0,1,0,.51l-1.21,2.43A.5.5,0,0,1,27.89,19.22Z"/><path class="cls-6" d="M34.46,24.17a.52.52,0,0,1-.5-.45.49.49,0,0,1,.39-.54l3.09-.72a.5.5,0,0,1,.6.38.5.5,0,0,1-.37.6l-3.1.71Z"/><path class="cls-6" d="M33.73,23.19a.5.5,0,0,1-.43-.25.48.48,0,0,1,0-.49l3-5.39a.5.5,0,0,1,.87,0,.49.49,0,0,1,0,.51l-3,5.38A.51.51,0,0,1,33.73,23.19Z"/><path class="cls-6" d="M29.81,37.26l-.14,0a.52.52,0,0,1-.3-.24.47.47,0,0,1,0-.38l.28-1a.5.5,0,0,1,1,.28l-.28,1A.51.51,0,0,1,29.81,37.26Zm.84-2.88-.14,0a.51.51,0,0,1-.3-.24.55.55,0,0,1,0-.38l.29-1a.49.49,0,0,1,.62-.34.5.5,0,0,1,.33.62l-.28,1A.5.5,0,0,1,30.65,34.38Z"/><path class="cls-6" d="M29.57,38.08l-.15,0a.49.49,0,0,1-.29-.24.46.46,0,0,1,0-.38l.31-1.08a.5.5,0,0,1,1,.28L30,37.72A.49.49,0,0,1,29.57,38.08Z"/><path class="cls-6" d="M34.51,34.88a.5.5,0,0,1-.38-.17l-1.67-1.88a.5.5,0,0,1,0-.7.49.49,0,0,1,.7,0l1.68,1.89a.49.49,0,0,1,.08.53A.5.5,0,0,1,34.51,34.88Z"/><path class="cls-6" d="M29.86,30.35a.47.47,0,0,1-.28-.09l-7.14-5a.5.5,0,1,1,.58-.82l7.13,5a.51.51,0,0,1,.19.57A.49.49,0,0,1,29.86,30.35Z"/><path class="cls-6" d="M36.88,28a.51.51,0,0,1-.33-.13l-.74-.67a.49.49,0,0,1-.16-.48.47.47,0,0,1,.34-.37.49.49,0,0,1,.49.11l.74.67a.5.5,0,0,1-.34.87Zm-2.22-2a.51.51,0,0,1-.34-.13l-.54-.49a.5.5,0,0,1,.67-.74l.54.49a.48.48,0,0,1,.13.55.49.49,0,0,1-.46.32Z"/></g></g></svg>