<svg xmlns="http://www.w3.org/2000/svg" viewBox="0 0 54 54"><defs><style>.cls-1{fill:#3e74ee;}.cls-2{fill:#fff;}.cls-3{fill:#b2cdf8;}</style></defs><g id="Layer_2" data-name="Layer 2"><g id="Layer_1-2" data-name="Layer 1"><rect class="cls-1" width="54" height="54" rx="10"/><path class="cls-2" d="M12.53,18.89a.52.52,0,0,0,.52-.52V13.08l5.45,0a.53.53,0,1,0,0-1.05H12v6.37A.52.52,0,0,0,12.53,18.89Z"/><path class="cls-2" d="M18.5,41l-5.45,0V35.63a.52.52,0,0,0-.52-.52.52.52,0,0,0-.53.52V42h6.5a.53.53,0,1,0,0-1Z"/><path class="cls-2" d="M35.5,12a.53.53,0,1,0,0,1.05l5.45,0v5.29a.52.52,0,0,0,.52.52.52.52,0,0,0,.53-.52V12Z"/><path class="cls-2" d="M41.47,35.11a.52.52,0,0,0-.52.52v5.29L35.5,41a.53.53,0,1,0,0,1H42V35.63A.52.52,0,0,0,41.47,35.11Z"/><path class="cls-2" d="M41.5,21.48H36.44a8.27,8.27,0,0,0-.6-2.81,9.67,9.67,0,0,0-8.18-5.18H26.33a9.68,9.68,0,0,0-8.18,5.18,8.5,8.5,0,0,0-.59,2.81H12.5a.5.5,0,0,0-.5.5.5.5,0,0,0,.5.5h5c0,.36,0,.73,0,1.07a1.27,1.27,0,0,0-.28-.06,1.54,1.54,0,0,0-1.3.45,2.1,2.1,0,0,0-.38,1.78,12.28,12.28,0,0,0,.56,2l.09.25c.06.17.11.35.16.53a4.25,4.25,0,0,0,.58,1.41,1.29,1.29,0,0,0,1,.59H18c0,.45.06.86.06,1.16,0,1.71,1.61,3.81,2.56,4.77a22.25,22.25,0,0,0,1.72,1.5A20.63,20.63,0,0,1,24,39.34a3.52,3.52,0,0,0,2.29,1.13h1.33A3.47,3.47,0,0,0,30,39.34q.8-.77,1.65-1.44t1.74-1.5c.94-1,2.56-3.06,2.56-4.77,0-.3,0-.71.05-1.16h.15a1.31,1.31,0,0,0,1-.59,4.47,4.47,0,0,0,.58-1.41c.05-.18.1-.36.16-.53l.08-.25a11.36,11.36,0,0,0,.57-2,2.1,2.1,0,0,0-.38-1.78,1.54,1.54,0,0,0-1.3-.45,1.4,1.4,0,0,0-.28.06c0-.34,0-.71,0-1.07h5a.5.5,0,0,0,0-1ZM17.75,29.31a3.6,3.6,0,0,1-.43-1.1c-.06-.2-.11-.4-.18-.59l-.09-.25a11.23,11.23,0,0,1-.52-1.8,1.17,1.17,0,0,1,.1-.9.56.56,0,0,1,.47-.17.72.72,0,0,1,.42.2c0,.05,0,.1,0,.15,0,.42,0,.77.06,1a3.68,3.68,0,0,0,0,.43s.2,1.65.34,3.17A.43.43,0,0,1,17.75,29.31Zm16.69-7.85H18.57a6.87,6.87,0,0,1,.49-2.37,9.07,9.07,0,0,1,5.51-4.4,6.79,6.79,0,0,1,1.76-.22h1.33a8.49,8.49,0,0,1,1.78.24l.1,0,.75.25.37.15.26.12.17.09.17.09.17.09.16.09.32.2c.05,0,.11.07.15.11l.16.1a11.67,11.67,0,0,1,1.23,1.05l.32.34.43.51a7.07,7.07,0,0,1,.51.74.75.75,0,0,0,.07.12.53.53,0,0,0,.06.1l.11.21a.42.42,0,0,0,0,.1,1.72,1.72,0,0,0,.07.21h0c0,.07,0,.13.07.2s0,.1,0,.15v0l.06.23h0s0,0,0,.06h0c0,.06,0,.13,0,.19h0v0l0,.18a7.93,7.93,0,0,1,.1,1h0M18.83,32.76v0h0s0,0,0,0,0,0,0,0h0a.08.08,0,0,0,0,0h0a.42.42,0,0,1,0,.06h0v0s0,0,0,0ZM34.5,22.49h1c0,.62,0,1.26,0,1.83h0c0,.09,0,.2,0,.29a13.08,13.08,0,0,1-.12,1.95h0c-.07.62-.22,1.9-.32,3.09a.2.2,0,0,0,0,.07v0c-.06.74-.11,1.43-.11,1.89A4.81,4.81,0,0,1,34,34h0c-.27.41-1,1.32-1,1.32h0l-.37.41h0c-.09.1-.2.19-.31.29h0l-.85.74h0l-.48.4a22.53,22.53,0,0,0-1.73,1.51,2.69,2.69,0,0,1-1.38.8h0a4.35,4.35,0,0,1-.46.11,3.19,3.19,0,0,1-.82,0,2.06,2.06,0,0,1-.46-.11,2.69,2.69,0,0,1-1.38-.8A22.53,22.53,0,0,0,23,37.15l-.48-.4s0,0-.07,0c-.29-.24-.71-.62-.78-.68h0l-.31-.29c-.12-.13-.25-.26-.37-.41A6.27,6.27,0,0,1,20,34a4.93,4.93,0,0,1-.89-2.33c0-.45,0-1.12-.11-1.84v0h0v0a.17.17,0,0,0,0-.07c-.11-1.2-.25-2.49-.32-3.1s-.12-1.52-.14-1.95c0-.18,0-.29,0-.29V24c0-.22,0-.46,0-.69s0-.54,0-.82m18.38,2a.59.59,0,0,1,.47.17,1.21,1.21,0,0,1,.11.91,11.38,11.38,0,0,1-.53,1.81l-.08.24q-.11.3-.18.6a3.4,3.4,0,0,1-.43,1.09.4.4,0,0,1-.22.18c.14-1.53.34-3.16.35-3.19s.06-.72.09-1.61A.91.91,0,0,1,36.89,24.48Z"/><path class="cls-3" d="M33.9,18.89A4.88,4.88,0,0,1,34.26,20c.08.44.14.92.18,1.42h1c0-.32,0-.64-.1-1a1.16,1.16,0,0,0,0-.18v0c0,.07,0,.13,0,.2a1.55,1.55,0,0,0,0-.21c0-.07,0-.14,0-.2s0,0,0-.06l-.06-.23v0c0-.05,0-.1,0-.15a1.46,1.46,0,0,0-.07-.19h0a1.59,1.59,0,0,1-.07-.2s0-.07,0-.11l-.11-.21-.06-.1a.75.75,0,0,1-.07-.12c-.15-.24-.32-.48-.51-.73s-.28-.34-.43-.51l-.32-.34a9.71,9.71,0,0,0-1.23-1.05l-.16-.11-.15-.1-.32-.2-.16-.1-.17-.09-.17-.09-.17-.09-.26-.12L30.29,15q-.36-.13-.75-.24l-.1,0A9.58,9.58,0,0,1,33.9,18.89Z"/><path class="cls-3" d="M31.74,35.79l-.26.27-.29.28-.24.22h0l-.62.53c-.75.63-1.56,1.25-2.19,1.87h0l0,0a5.64,5.64,0,0,1-.68.56,2.84,2.84,0,0,0,.45-.1,2.78,2.78,0,0,0,1.38-.81c.55-.53,1.13-1,1.73-1.51l.48-.39h0l.86-.75.3-.28h0L33,35.3h0s.73-.91,1-1.32h0a4.81,4.81,0,0,0,.9-2.33c0-.46.05-1.15.11-1.89v0a.2.2,0,0,1,0-.07c.1-1.19.25-2.47.32-3.09h0a13.08,13.08,0,0,0,.12-1.95c0-.09,0-.2,0-.29s0,0,0,0c0-.57,0-1.21,0-1.83h-1V23h0v1c0,.21,0,.4,0,.59l-.09,1.53h0v0a.45.45,0,0,0,0,.08s-.08.73-.19,1.68h0c-.06.56-.13,1.19-.18,1.79,0,0,0,.07,0,.1h0c-.06.71-.1,1.38-.1,1.81a5.47,5.47,0,0,1-.9,2.5h0l-.14.19a10.89,10.89,0,0,1-1,1.32"/></g></g></svg>