<svg xmlns="http://www.w3.org/2000/svg" viewBox="0 0 54 54"><defs><style>.cls-1{fill:#3e74ee;}.cls-2{fill:#fff;}.cls-3{fill:#b2cdf8;}</style></defs><g id="Layer_2" data-name="Layer 2"><g id="Layer_1-2" data-name="Layer 1"><rect class="cls-1" width="54" height="54" rx="10"/><path class="cls-2" d="M12.53,18.89a.52.52,0,0,0,.52-.52V13.08l5.45,0a.53.53,0,1,0,0-1.05H12v6.37A.52.52,0,0,0,12.53,18.89Z"/><path class="cls-2" d="M18.5,41l-5.45,0V35.63a.52.52,0,0,0-.52-.52.52.52,0,0,0-.53.52V42h6.5a.53.53,0,1,0,0-1Z"/><path class="cls-2" d="M35.5,12a.53.53,0,1,0,0,1.05l5.45,0v5.29a.52.52,0,0,0,.52.52.52.52,0,0,0,.53-.52V12Z"/><path class="cls-2" d="M41.47,35.11a.52.52,0,0,0-.52.52v5.29L35.5,41a.53.53,0,1,0,0,1H42V35.63A.52.52,0,0,0,41.47,35.11Z"/><path class="cls-3" d="M28.61,14.37s4.74,1.77,5.63,5.65c0,0,.56,1.5,0,7.47l-.36,4.38a7,7,0,0,1-2.19,3.95,18.74,18.74,0,0,1-2.63,2.32s-1,.89-1.1,1a2.45,2.45,0,0,1-.71.48l1.26.29,5.83-5.3L35.5,31.7,36,20.75l-.94-2.29-2.73-2.8Z"/><path class="cls-2" d="M38.08,24a1.52,1.52,0,0,0-1.29-.45,1.5,1.5,0,0,0-.29.06c0-.35,0-.71,0-1.07l-.05-1a8.21,8.21,0,0,0-.59-2.81,9.68,9.68,0,0,0-8.18-5.19H26.34a9.65,9.65,0,0,0-8.18,5.19,8.15,8.15,0,0,0-.59,2.79v0c0,.12,0,.5-.06,1s0,.72,0,1.07a1.27,1.27,0,0,0-.28-.06,1.52,1.52,0,0,0-1.29.45,2,2,0,0,0-.38,1.78,10.52,10.52,0,0,0,.56,2l.09.24c.05.17.11.35.15.54a4.57,4.57,0,0,0,.58,1.41,1.34,1.34,0,0,0,1,.59h.15c0,.46.05.87.05,1.17,0,1.71,1.61,3.8,2.56,4.76a20.55,20.55,0,0,0,1.73,1.51c.57.45,1.12.93,1.65,1.43a3.49,3.49,0,0,0,2.29,1.14h1.33A3.44,3.44,0,0,0,30,39.36c.53-.5,1.08-1,1.66-1.43a20.55,20.55,0,0,0,1.73-1.51c.95-1,2.56-3.06,2.56-4.76,0-.3,0-.71.05-1.17h.15a1.32,1.32,0,0,0,1-.59,4.34,4.34,0,0,0,.58-1.41c.06-.19.1-.37.16-.54l.09-.24a12.28,12.28,0,0,0,.56-2A2.07,2.07,0,0,0,38.08,24ZM17.75,29.33a3.62,3.62,0,0,1-.42-1.09c-.06-.21-.12-.41-.19-.59l-.08-.25a10.54,10.54,0,0,1-.52-1.8,1.2,1.2,0,0,1,.09-.91.61.61,0,0,1,.48-.17.91.91,0,0,1,.42.2v.15c0,.43,0,.78.06,1s0,.39,0,.43.19,1.65.33,3.17A.4.4,0,0,1,17.75,29.33Zm1.09,3.44h0ZM35.5,24.35c0,.09,0,.2,0,.28a14.12,14.12,0,0,1-.13,2h0c-.07.63-.21,1.91-.32,3.1v.09c-.07.74-.12,1.43-.12,1.89A4.73,4.73,0,0,1,34,34c-.14.21-.39.54-.6.82l-.4.51-.38.41c-.1.1-.21.19-.31.3l-.86.74-.48.39a22.66,22.66,0,0,0-1.73,1.52,2.84,2.84,0,0,1-1.38.8,4.08,4.08,0,0,1-.45.1,2.83,2.83,0,0,1-.82,0,2.28,2.28,0,0,1-.47-.11,2.85,2.85,0,0,1-1.37-.8A21,21,0,0,0,23,37.17l-.48-.39-.06-.05c-.3-.24-.72-.62-.79-.68h0q-.16-.15-.3-.3a5.24,5.24,0,0,1-.38-.41A5.73,5.73,0,0,1,20,34a4.77,4.77,0,0,1-.9-2.32c0-.45,0-1.13-.1-1.84a.06.06,0,0,0,0,0v0h0a.15.15,0,0,0,0-.07c-.1-1.2-.25-2.49-.32-3.1s-.11-1.52-.13-2c0-.19,0-.3,0-.3s0-.21,0-.32,0-.46,0-.7,0-.54,0-.81,0-.91.05-1h0a7.11,7.11,0,0,1,.49-2.37,9.14,9.14,0,0,1,5.51-4.4,7.33,7.33,0,0,1,1.77-.22h1.33a9.1,9.1,0,0,1,1.77.25l.1,0a6.75,6.75,0,0,1,.76.25l.36.14.27.13.17.08.17.09.16.1.16.09.33.2.15.1.15.11a10,10,0,0,1,1.23,1.05c.11.11.22.22.32.34a6.47,6.47,0,0,1,.43.51,6.16,6.16,0,0,1,.51.74l.07.11.06.1.11.21a.36.36,0,0,0,0,.11,1.59,1.59,0,0,1,.07.2h0l.06.19,0,.16a0,0,0,0,1,0,0,2.25,2.25,0,0,1,.05.22h0a.25.25,0,0,1,0,.07h0c0,.06,0,.12,0,.18h0v0l0,.17a6.38,6.38,0,0,1,.1,1s.05.61.06,1C35.51,23.14,35.51,23.77,35.5,24.35Zm2,1.24a10.29,10.29,0,0,1-.52,1.8l-.09.25c-.06.19-.12.39-.17.59a3.88,3.88,0,0,1-.43,1.1.41.41,0,0,1-.22.17c.14-1.53.34-3.15.34-3.18s.07-.72.09-1.61a.75.75,0,0,1,.42-.2.58.58,0,0,1,.48.17A1.2,1.2,0,0,1,37.47,25.59Z"/><path class="cls-2" d="M31.33,22.47a3.77,3.77,0,0,0-3.73,3.29H26.24a3.76,3.76,0,1,0,0,.94H27.6a3.76,3.76,0,1,0,3.73-4.23Zm-8.82,6.58a2.82,2.82,0,1,1,2.82-2.82A2.82,2.82,0,0,1,22.51,29.05Zm8.82,0a2.82,2.82,0,1,1,2.82-2.82A2.82,2.82,0,0,1,31.33,29.05Z"/></g></g></svg>